<svg version="1.1" viewBox="0.0 0.0 96.0 96.0" fill="none" stroke="none" stroke-linecap="square" stroke-miterlimit="10" xmlns:xlink="http://www.w3.org/1999/xlink" xmlns="http://www.w3.org/2000/svg"><clipPath id="p.0"><path d="m0 0l96.0 0l0 96.0l-96.0 0l0 -96.0z" clip-rule="nonzero"/></clipPath><g clip-path="url(#p.0)"><path fill="#000000" fill-opacity="0.0" d="m0 0l96.0 0l0 96.0l-96.0 0z" fill-rule="evenodd"/><path fill="#000000" fill-opacity="0.0" d="m0 -21.24266l96.0 0l0 96.0l-96.0 0z" fill-rule="evenodd"/><path fill="#ffffff" d="m46.740814 67.101715q-5.796875 0 -10.828125 -2.453125q-5.015625 -2.46875 -8.625 -6.671875q-3.609375 -4.21875 -5.640625 -9.40625q-2.015625 -5.1875 -2.015625 -10.65625q0 -5.796875 1.90625 -11.09375q1.921875 -5.3125 5.46875 -9.46875q3.5625 -4.15625 8.359375 -6.546875q4.8125 -2.40625 10.71875 -2.40625q7.546875 0 13.171875 4.046875q5.640625 4.03125 9.578125 9.71875l0 -12.890625l3.484375 0l0 58.59375q0 7.546875 -3.609375 12.625q-3.59375 5.078125 -9.5625 7.53125q-5.953125 2.46875 -12.734375 2.46875q-9.953125 0 -15.6875 -3.71875q-5.734375 -3.703125 -9.125 -9.609375l2.84375 -1.53125q3.390625 6.015625 9.34375 8.796875q5.953125 2.78125 12.625 2.78125q6.125 0 11.15625 -2.1875q5.03125 -2.171875 8.03125 -6.5q3.015625 -4.3125 3.015625 -10.65625l0 -13.34375q-3.5 5.578125 -9.46875 9.078125q-5.953125 3.5 -12.40625 3.5zm0.65625 -3.390625q3.828125 0 7.4375 -1.421875q3.609375 -1.421875 6.671875 -3.828125q3.0625 -2.40625 4.921875 -5.296875q1.859375 -2.90625 2.1875 -5.84375l0 -19.578125q-1.75 -4.703125 -5.25 -8.25q-3.5 -3.5625 -7.875 -5.578125q-4.375 -2.03125 -9.078125 -2.03125q-5.359375 0 -9.671875 2.296875q-4.3125 2.296875 -7.265625 6.078125q-2.953125 3.765625 -4.484375 8.421875q-1.53125 4.640625 -1.53125 9.234375q0 5.140625 1.796875 9.78125q1.8125 4.640625 5.140625 8.3125q3.328125 3.65625 7.640625 5.6875q4.328125 2.015625 9.359375 2.015625z" fill-rule="nonzero"/></g></svg>